# xmcd
#
# Track frame offsets:
#	150
#	13220
#	26035
#	38875
#	51670
#	63405
#	73882
#	102605
#	128290
#	152552
#	162957
#	193525
#	239090
#
# Disc length: 3757
#
# Revision: 2
# Processed by: cddbd v1.5.1PL0 Copyright (c) Steve Scherf et al.
# Submitted via: CDex 1.50
# Normalized: r1:DSETVAR1,TDELIM( - )
#
DISCID=bb0eab0d
DTITLE=Various Artist - Blues - Da Lama à Fama
DYEAR=1900
DGENRE=Blues
TTITLE0=Leadbelly - Packin' Trunk Blues
TTITLE1=Blind Lemmon Jefferson - Black Snake Moan
TTITLE2=Big Bill Bronzy - How You Want It Done
TTITLE3=Lonnie Johnson - Away Down in the Alley Blues
TTITLE4=Leroy Carr - Stormy Night Blues
TTITLE5=Robert Johnson - Love In Vain
TTITLE6=Bessie Smith - Empty Bed Blues
TTITLE7=Alberta Hunter - Downhearted Blues
TTITLE8=Muddy Waters - Mannish Boy
TTITLE9=Willie Dixon - Cool Kind Woman
TTITLE10=Branford Marsalis and John Lee Hooker - Mabel
TTITLE11=BB King and Branford Marsalis - BB's Blues
TTITLE12=Janis Joplin - Ball and Chain
EXTD=
EXTT0=
EXTT1=
EXTT2=
EXTT3=
EXTT4=
EXTT5=
EXTT6=
EXTT7=
EXTT8=
EXTT9=
EXTT10=
EXTT11=
EXTT12=
PLAYORDER=
